<?xml version="1.0" standalone="no"?>
<!DOCTYPE svg PUBLIC "-//W3C//DTD SVG 20010904//EN"
 "http://www.w3.org/TR/2001/REC-SVG-20010904/DTD/svg10.dtd">
<svg version="1.0" xmlns="http://www.w3.org/2000/svg"
 width="512.000000pt" height="512.000000pt" viewBox="0 0 512.000000 512.000000"
 preserveAspectRatio="xMidYMid meet">
<metadata>
Created by potrace 1.14, written by Peter Selinger 2001-2017
</metadata>
<g transform="translate(0.000000,512.000000) scale(0.100000,-0.100000)"
fill="#000000" stroke="none">
<path d="M2240 4939 c-514 -59 -1010 -297 -1389 -664 -350 -340 -563 -708
-675 -1167 -53 -214 -69 -352 -69 -578 0 -391 78 -736 244 -1071 377 -759
1087 -1257 1926 -1349 166 -18 504 -8 662 20 355 63 645 178 941 375 284 188
500 407 691 699 186 282 311 611 366 956 25 162 25 567 0 729 -39 244 -111
478 -212 686 -363 747 -1062 1253 -1878 1360 -129 16 -476 19 -607 4z m597
-54 c588 -77 1117 -363 1501 -810 248 -289 436 -663 516 -1026 59 -267 72
-629 31 -889 -120 -760 -602 -1418 -1291 -1763 -318 -159 -622 -234 -985 -244
-260 -7 -434 10 -662 67 -774 194 -1413 784 -1667 1541 -84 250 -121 485 -121
764 -1 261 25 438 98 690 147 511 509 995 967 1297 305 201 673 336 1026 377
130 15 458 12 587 -4z"/>
<path d="M2672 4653 c-31 -6 -56 -46 -48 -79 5 -19 21 -32 60 -49 64 -28 76
-43 51 -62 -27 -19 -43 -16 -71 12 -30 30 -54 32 -54 5 0 -45 62 -78 125 -66
28 6 40 15 52 42 16 32 16 35 -3 60 -11 15 -39 34 -64 44 -47 19 -63 44 -33
52 23 6 63 -8 63 -22 0 -5 11 -10 25 -10 31 0 32 12 3 43 -23 25 -65 37 -106
30z"/>
<path d="M2355 4644 c-12 -5 -8 -214 4 -227 4 -4 42 -4 84 -1 66 6 77 10 77
25 0 16 -8 19 -58 19 l-59 0 -9 92 c-9 87 -15 102 -39 92z"/>
<path d="M2180 4624 c-11 -3 -23 -38 -38 -107 -27 -127 -27 -137 -2 -137 15 0
22 8 26 30 6 26 12 30 52 36 40 6 48 4 60 -15 13 -19 62 -31 62 -15 0 15 -126
213 -135 213 -5 -1 -17 -3 -25 -5z m57 -130 c-2 -2 -14 -5 -28 -6 -20 -3 -24
1 -21 22 5 51 12 55 33 21 11 -18 18 -35 16 -37z"/>
<path d="M2840 4610 c0 -15 7 -20 24 -20 14 0 27 -4 30 -9 4 -5 -1 -44 -9 -88
-8 -43 -15 -83 -15 -89 0 -13 30 -28 38 -19 3 3 13 44 22 93 l17 87 36 -2 c31
-2 37 1 37 17 0 12 -8 21 -22 24 -148 31 -158 32 -158 6z"/>
<path d="M3041 4519 c-23 -72 -29 -128 -16 -149 11 -17 70 -40 104 -40 40 0
62 31 90 125 19 64 21 79 10 86 -23 15 -30 6 -54 -69 -33 -105 -50 -120 -96
-84 l-22 19 26 84 c19 62 23 85 14 91 -25 16 -34 6 -56 -63z"/>
<path d="M1912 4555 c-16 -14 -32 -37 -35 -52 -9 -46 12 -111 46 -139 26 -22
38 -25 76 -21 49 5 91 41 91 78 0 30 -46 26 -54 -5 -13 -51 -79 -44 -102 10
-19 45 -18 78 4 97 22 20 45 22 71 5 15 -9 23 -9 36 2 16 13 15 15 -5 32 -33
27 -92 23 -128 -7z"/>
<path d="M1770 4508 c0 -7 18 -58 39 -113 31 -83 41 -99 57 -97 10 2 20 5 22
7 2 2 -14 51 -35 109 -33 92 -41 106 -60 106 -13 0 -23 -6 -23 -12z"/>
<path d="M3256 4424 c-56 -135 -57 -127 13 -154 69 -25 101 -22 136 15 49 54
53 138 9 176 -19 15 -96 49 -113 49 -5 0 -25 -39 -45 -86z m112 16 c20 -12 32
-28 32 -41 0 -30 -29 -88 -50 -99 -21 -11 -80 6 -80 23 0 17 52 137 59 137 3
0 21 -9 39 -20z"/>
<path d="M1608 4443 c-32 -14 -58 -29 -58 -33 0 -4 20 -51 45 -104 28 -62 50
-96 60 -96 9 0 33 9 55 20 82 42 98 87 59 167 -20 41 -60 73 -91 73 -7 0 -39
-12 -70 -27z m112 -55 c11 -18 20 -48 20 -65 0 -26 -6 -36 -30 -48 -17 -9 -34
-14 -38 -11 -4 2 -21 32 -37 66 -29 60 -29 62 -10 76 34 25 73 18 95 -18z"/>
<path d="M3465 4310 c-32 -56 -56 -102 -54 -104 2 -1 36 -21 76 -43 62 -36 74
-39 84 -26 14 16 11 20 -46 50 -51 27 -55 32 -43 59 14 30 23 30 73 -1 47 -29
51 -30 59 -10 4 11 -10 25 -44 46 -43 26 -48 33 -40 50 13 24 16 24 69 -7 43
-24 71 -26 71 -5 0 9 -128 91 -142 91 -3 0 -32 -45 -63 -100z"/>
<path d="M1423 4342 c-35 -20 -63 -41 -63 -47 0 -11 110 -195 117 -195 15 0
143 87 143 97 0 25 -21 22 -71 -8 -50 -31 -52 -32 -65 -14 -21 29 -17 38 31
68 25 16 45 33 45 37 0 21 -24 19 -70 -7 -43 -24 -52 -26 -60 -13 -17 26 -11
34 41 63 48 27 59 49 28 54 -8 1 -42 -14 -76 -35z"/>
<path d="M2330 4299 c-104 -12 -256 -45 -364 -80 -125 -40 -352 -155 -466
-236 -123 -88 -336 -301 -422 -423 -157 -222 -258 -470 -310 -760 -20 -113
-17 -460 5 -577 61 -325 188 -598 392 -843 605 -726 1683 -850 2440 -280 554
417 814 1106 675 1792 -94 459 -372 866 -775 1131 -335 220 -768 322 -1175
276z m388 -50 c352 -38 662 -172 944 -408 224 -188 425 -485 516 -766 140
-427 112 -892 -78 -1292 -199 -421 -577 -756 -1015 -901 -755 -250 -1568 35
-2008 703 -358 544 -367 1294 -24 1845 360 576 1002 892 1665 819z"/>
<path d="M2416 3970 c-63 -55 -71 -133 -21 -200 14 -19 25 -42 25 -51 0 -10 5
-21 10 -24 6 -3 10 -32 10 -64 l0 -58 38 -7 c20 -3 49 -6 65 -6 27 0 27 1 27
64 0 36 5 68 10 71 6 3 10 14 10 24 0 9 11 32 25 51 50 67 42 145 -21 200 -30
25 -43 30 -89 30 -46 0 -59 -5 -89 -30z"/>
<path d="M1950 3940 c-45 -45 -70 -97 -70 -146 0 -27 4 -34 19 -34 10 0 24 6
30 13 6 8 29 22 51 32 47 21 54 38 45 116 -8 71 -20 74 -75 19z"/>
<path d="M2986 3953 c-2 -10 -7 -37 -11 -60 -6 -36 -3 -45 17 -62 38 -33 116
-80 122 -74 10 10 7 69 -5 100 -12 32 -87 113 -105 113 -7 0 -15 -8 -18 -17z"/>
<path d="M1787 3883 c-51 -55 -79 -145 -58 -196 6 -16 14 -13 68 30 49 38 62
54 63 75 0 41 -23 118 -35 118 -6 0 -23 -12 -38 -27z"/>
<path d="M3160 3859 c-17 -64 -15 -98 6 -113 10 -8 36 -28 58 -45 21 -17 43
-31 47 -31 5 0 9 24 9 53 0 73 -61 177 -104 177 -3 0 -10 -19 -16 -41z"/>
<path d="M2170 3798 c-17 -24 -37 -51 -45 -61 -8 -9 -15 -19 -15 -22 0 -12 85
-4 115 10 32 16 95 71 95 85 0 9 -70 30 -99 30 -13 0 -32 -15 -51 -42z"/>
<path d="M2742 3825 c-29 -7 -55 -14 -57 -17 -11 -11 39 -58 87 -82 44 -22
128 -36 128 -21 0 9 -82 120 -93 126 -7 3 -36 1 -65 -6z"/>
<path d="M1628 3793 c-49 -51 -72 -152 -47 -206 11 -24 11 -23 65 33 61 64 65
81 31 153 l-22 48 -27 -28z"/>
<path d="M3320 3754 c-11 -31 -18 -64 -15 -73 6 -19 94 -111 106 -111 19 0 28
71 15 120 -12 48 -58 120 -76 120 -5 0 -18 -25 -30 -56z"/>
<path d="M1471 3674 c-11 -14 -25 -50 -32 -81 -11 -46 -10 -62 2 -96 8 -22 19
-42 24 -43 12 -4 95 108 95 129 0 16 -47 104 -60 112 -5 3 -17 -6 -29 -21z"/>
<path d="M3476 3646 c-14 -24 -26 -55 -26 -68 0 -13 21 -49 47 -81 46 -57 47
-57 60 -35 21 38 16 128 -9 178 -13 24 -28 46 -34 47 -7 2 -23 -16 -38 -41z"/>
<path d="M2029 3643 c-41 -14 -81 -31 -89 -38 -8 -7 -42 -27 -75 -44 -71 -37
-163 -102 -187 -132 -10 -12 -33 -33 -52 -48 -19 -16 -51 -48 -70 -72 -47 -58
-156 -220 -156 -231 0 -5 -11 -31 -25 -58 -29 -57 -81 -217 -89 -275 -27 -191
-22 -344 18 -510 16 -69 51 -171 68 -200 7 -11 22 -40 34 -65 58 -119 183
-273 310 -381 39 -34 170 -119 182 -119 5 0 29 -11 53 -24 97 -54 318 -112
434 -115 32 0 67 -4 77 -7 27 -8 23 29 -7 64 -26 31 -87 65 -137 76 -23 5 -28
3 -28 -13 0 -19 -3 -18 -47 9 -70 41 -93 47 -93 20 0 -20 -5 -18 -45 18 -50
44 -85 59 -85 36 0 -22 -18 -16 -36 11 -14 22 -72 65 -87 65 -3 0 -7 -8 -9
-17 -3 -14 -7 -12 -20 12 -9 17 -30 43 -48 60 -25 24 -33 27 -40 15 -11 -18
-14 -15 -43 40 -25 48 -56 73 -64 53 -7 -20 -23 -15 -23 7 0 25 -35 96 -52
106 -6 4 -14 2 -16 -4 -8 -25 -20 -10 -24 33 -7 56 -34 101 -52 86 -10 -9 -14
0 -19 43 -7 70 -23 102 -43 85 -12 -10 -14 -2 -14 52 0 71 -9 93 -33 83 -14
-5 -15 -1 -6 31 15 54 8 110 -13 109 -10 -1 -18 -1 -18 0 0 0 7 23 15 50 22
72 20 100 -6 93 -11 -3 -19 -2 -17 1 18 33 40 88 45 113 5 25 2 29 -16 29
l-22 0 24 33 c20 26 47 87 47 103 0 2 -10 4 -22 4 -21 0 -20 2 9 33 52 54 67
97 36 97 -14 1 -9 8 16 30 32 27 71 77 71 92 0 3 -8 8 -17 10 -14 2 -9 9 19
26 21 13 47 37 59 53 l21 30 -21 6 c-19 5 -17 8 21 25 68 30 111 78 71 78 -25
0 -5 14 48 34 45 16 95 56 71 56 -30 0 -7 17 37 29 68 17 89 34 72 55 -12 14
-9 16 28 16 57 0 117 25 103 43 -9 11 1 13 53 13 84 0 97 12 60 56 -49 58 -53
59 -136 31z"/>
<path d="M2850 3618 c-22 -24 -40 -46 -40 -49 0 -11 42 -19 99 -19 46 0 52 -2
41 -15 -10 -12 -7 -17 16 -26 16 -6 50 -14 77 -17 37 -4 45 -7 36 -18 -12 -15
19 -39 66 -49 63 -14 67 -16 56 -29 -15 -18 14 -42 75 -66 38 -14 45 -20 31
-25 -17 -7 -16 -9 5 -32 13 -14 43 -36 68 -49 25 -12 37 -23 28 -24 -10 0 -18
-4 -18 -9 0 -16 41 -60 78 -83 28 -17 33 -24 20 -26 -29 -6 -21 -30 27 -78 49
-49 52 -54 30 -54 -8 0 -15 -3 -15 -7 0 -12 40 -76 63 -100 19 -21 19 -23 2
-23 -14 0 -16 -5 -11 -32 3 -17 17 -46 31 -64 30 -39 31 -44 6 -44 -17 0 -18
-4 -9 -42 5 -24 16 -53 24 -65 18 -28 18 -37 0 -30 -8 3 -17 -1 -20 -9 -6 -14
6 -81 20 -117 4 -12 1 -17 -10 -17 -22 0 -30 -43 -17 -95 14 -57 14 -60 -4
-45 -12 10 -17 7 -26 -16 -6 -16 -9 -50 -6 -77 4 -42 2 -47 -13 -42 -22 7 -40
-39 -40 -103 0 -40 -2 -43 -16 -31 -21 18 -38 -5 -54 -72 -10 -39 -15 -47 -25
-39 -17 14 -51 -28 -65 -81 -11 -38 -25 -50 -32 -27 -7 19 -27 -1 -60 -60 -18
-30 -34 -50 -36 -44 -2 7 -10 12 -17 12 -17 0 -71 -62 -80 -91 -7 -22 -8 -22
-21 -4 -13 17 -14 17 -41 0 -15 -9 -40 -31 -55 -49 -22 -25 -28 -27 -28 -13 0
14 -5 17 -22 11 -27 -8 -69 -37 -88 -59 -16 -19 -31 -20 -24 0 10 24 -24 18
-83 -15 -61 -35 -65 -36 -56 -13 5 14 1 15 -31 10 -52 -8 -123 -52 -147 -90
-10 -18 -19 -36 -19 -40 0 -12 183 0 260 17 205 44 390 136 552 273 66 56 145
143 176 193 11 20 31 47 43 60 12 14 32 50 46 80 14 30 30 61 35 67 19 24 68
178 88 281 26 125 28 310 5 427 -74 372 -288 671 -605 845 -78 43 -192 90
-217 90 -7 0 -32 -19 -53 -42z"/>
<path d="M1334 3544 c-15 -22 -19 -47 -19 -111 0 -71 3 -85 22 -104 l21 -22
31 54 c17 30 34 64 37 75 6 24 -12 62 -50 108 l-24 29 -18 -29z"/>
<path d="M2236 3545 c-85 -35 -166 -91 -166 -115 0 -43 120 -60 254 -36 71 12
104 13 163 5 99 -14 195 -44 217 -68 33 -36 2 -87 -75 -127 -26 -13 -49 -30
-53 -39 -8 -22 -8 -145 1 -145 3 0 44 18 89 40 107 52 168 112 190 187 46 158
-60 259 -311 292 -49 7 -117 17 -151 22 -84 13 -91 12 -158 -16z m104 -65 c0
-6 -7 -13 -15 -16 -20 -8 -48 3 -40 16 8 13 55 13 55 0z"/>
<path d="M3635 3546 c-6 -7 -23 -31 -38 -54 l-29 -41 39 -70 c21 -39 41 -71
45 -71 16 0 37 47 42 95 4 35 1 65 -11 99 -19 53 -32 64 -48 42z"/>
<path d="M1214 3399 c-4 -7 -9 -41 -11 -78 -4 -55 -1 -73 19 -111 13 -24 28
-45 34 -47 10 -3 64 115 64 142 0 16 -77 105 -91 105 -4 0 -11 -5 -15 -11z"/>
<path d="M3738 3372 c-64 -67 -64 -60 -5 -189 6 -13 14 -23 18 -23 15 0 49 69
55 111 6 44 -9 123 -25 133 -4 3 -24 -12 -43 -32z"/>
<path d="M2455 3382 c-7 -7 -4 -362 4 -517 l6 -120 41 -22 41 -23 6 152 c9
205 9 518 0 518 -5 1 -27 5 -50 9 -23 5 -45 6 -48 3z"/>
<path d="M1116 3234 c-10 -25 -7 -120 5 -151 10 -28 57 -83 70 -83 4 0 9 12
12 28 2 15 11 48 20 74 18 56 10 71 -57 118 -37 25 -45 27 -50 14z"/>
<path d="M3832 3208 c-48 -36 -60 -66 -44 -112 6 -17 13 -46 17 -63 4 -18 11
-33 16 -33 21 0 58 54 69 101 12 48 6 139 -8 139 -4 -1 -26 -15 -50 -32z"/>
<path d="M2385 3083 c-136 -72 -198 -206 -146 -318 28 -61 88 -109 231 -180
151 -76 170 -91 170 -140 0 -28 -9 -44 -40 -75 -40 -40 -41 -42 -38 -102 l3
-60 65 43 c108 73 151 171 116 263 -24 61 -73 102 -206 172 -192 100 -231 158
-154 230 19 19 40 34 45 34 13 0 7 143 -6 146 -5 2 -23 -4 -40 -13z"/>
<path d="M1034 3044 c-12 -48 14 -131 55 -174 41 -43 60 -50 59 -22 0 9 3 47
7 83 7 65 7 66 -21 86 -16 11 -44 28 -61 37 -32 16 -33 16 -39 -10z"/>
<path d="M3920 3041 c-65 -35 -74 -52 -66 -128 4 -38 8 -73 8 -80 3 -36 82 49
98 105 12 43 13 122 3 122 -5 -1 -24 -9 -43 -19z"/>
<path d="M980 2843 c1 -52 30 -112 74 -151 59 -51 68 -45 63 43 -5 82 -14 99
-62 119 -74 31 -75 31 -75 -11z"/>
<path d="M3960 2853 c-63 -27 -70 -39 -70 -119 0 -40 4 -75 8 -78 18 -11 72
38 96 87 28 54 35 128 14 126 -7 0 -29 -7 -48 -16z"/>
<path d="M950 2664 c0 -37 27 -95 62 -131 30 -31 84 -60 93 -51 3 3 0 40 -6
82 -13 85 -17 89 -101 112 -48 12 -48 12 -48 -12z"/>
<path d="M3981 2660 c-29 -10 -57 -23 -61 -30 -4 -6 -8 -34 -9 -63 -1 -29 -4
-60 -7 -69 -9 -30 31 -22 71 14 40 35 72 90 77 133 4 36 -5 38 -71 15z"/>
<path d="M2467 2564 c-2 -2 -2 -123 0 -267 5 -247 6 -263 25 -279 43 -38 44
-32 51 237 3 141 4 261 1 269 -5 14 -69 48 -77 40z"/>
<path d="M944 2464 c16 -69 101 -154 154 -154 22 0 24 3 18 32 -23 116 -37
132 -125 144 l-54 7 7 -29z"/>
<path d="M3960 2467 c-30 -11 -36 -19 -52 -72 -10 -33 -21 -68 -24 -77 -9 -29
37 -22 84 12 41 30 92 103 92 133 0 20 -47 22 -100 4z"/>
<path d="M960 2281 c0 -12 49 -83 69 -99 24 -20 94 -52 114 -52 24 0 22 17
-13 94 l-30 66 -70 0 c-39 0 -70 -4 -70 -9z"/>
<path d="M3920 2283 c-8 -2 -29 -37 -47 -78 l-31 -75 32 0 c41 0 103 40 139
90 41 58 37 70 -25 69 -29 -1 -60 -3 -68 -6z"/>
<path d="M2393 2230 c-55 -39 -83 -87 -83 -139 0 -83 36 -122 173 -186 54 -25
101 -53 104 -62 4 -10 -2 -23 -15 -34 -17 -13 -22 -28 -22 -64 l0 -47 43 25
c58 35 82 69 81 118 -2 52 -19 69 -123 125 -126 68 -141 80 -141 115 0 17 8
36 20 46 16 14 20 30 20 75 0 32 -3 58 -7 58 -5 -1 -27 -14 -50 -30z"/>
<path d="M1012 2102 c-22 -15 39 -86 99 -116 54 -26 75 -31 102 -20 12 4 8 18
-23 72 l-37 67 -64 3 c-35 1 -70 -2 -77 -6z"/>
<path d="M3874 2103 c-12 -2 -25 -12 -28 -21 -7 -20 -39 -76 -55 -95 -33 -41
63 -37 125 6 42 28 94 92 83 101 -7 6 -104 13 -125 9z"/>
<path d="M1108 1928 c-21 -6 -38 -13 -38 -17 0 -12 64 -68 95 -84 43 -21 86
-28 117 -19 l28 7 -46 63 c-43 57 -50 62 -83 61 -20 -1 -53 -6 -73 -11z"/>
<path d="M3747 1872 l-49 -67 43 -3 c23 -2 61 4 84 12 47 19 114 82 99 95 -9
9 -93 31 -116 31 -7 0 -35 -31 -61 -68z"/>
<path d="M2480 1742 c0 -138 0 -139 25 -150 l25 -12 0 144 c0 147 -2 156 -41
156 -5 0 -9 -61 -9 -138z"/>
<path d="M1207 1763 c-49 -20 -45 -39 14 -75 53 -33 134 -47 169 -28 22 12 22
12 -31 66 -59 60 -82 65 -152 37z"/>
<path d="M3661 1729 c-28 -28 -51 -55 -51 -60 0 -21 53 -30 102 -19 46 12 128
61 128 79 0 4 -19 15 -42 24 -85 31 -82 31 -137 -24z"/>
<path d="M2401 1695 c-57 -65 -37 -126 55 -173 78 -40 174 -52 174 -22 0 5
-40 30 -90 56 -86 45 -110 67 -90 79 6 4 10 26 10 51 0 55 -16 57 -59 9z"/>
<path d="M1332 1613 c-29 -15 -52 -30 -52 -34 0 -14 54 -46 95 -58 54 -15 79
-14 123 5 l37 15 -25 20 c-14 10 -29 22 -35 27 -5 4 -23 17 -39 30 -36 28 -41
28 -104 -5z"/>
<path d="M3533 1581 c-62 -48 -62 -48 -37 -60 44 -20 125 -13 182 15 29 14 52
29 52 33 0 9 -103 61 -121 60 -8 0 -42 -22 -76 -48z"/>
<path d="M1465 1477 c-26 -18 -48 -37 -48 -42 0 -6 15 -18 34 -27 49 -26 144
-24 188 3 l34 20 -29 15 c-16 8 -42 23 -59 33 -55 34 -69 34 -120 -2z"/>
<path d="M3410 1464 c-30 -18 -56 -38 -58 -43 -6 -17 55 -41 100 -41 54 0 112
16 128 35 10 13 8 19 -15 38 -40 31 -68 46 -85 46 -8 0 -40 -16 -70 -35z"/>
<path d="M2480 1473 c0 -30 12 -63 21 -63 5 0 14 12 20 27 8 22 7 30 -7 40
-24 18 -34 16 -34 -4z"/>
<path d="M1607 1351 l-52 -50 30 -12 c69 -27 209 -3 223 39 3 11 -31 29 -111
58 l-39 14 -51 -49z"/>
<path d="M3262 1359 c-70 -32 -74 -45 -21 -71 55 -28 199 -19 199 12 0 13 -89
90 -102 89 -7 0 -42 -14 -76 -30z"/>
<path d="M1802 1292 c-23 -18 -72 -81 -72 -93 0 -15 90 -21 139 -9 47 11 101
48 101 68 0 5 -26 15 -57 22 -32 7 -65 17 -73 21 -9 4 -24 1 -38 -9z"/>
<path d="M3150 1289 c-14 -6 -46 -15 -72 -20 -43 -10 -47 -13 -38 -30 19 -34
88 -61 156 -61 84 0 91 6 58 50 -26 36 -64 72 -74 71 -3 0 -16 -5 -30 -10z"/>
<path d="M1940 1183 c-16 -27 -30 -54 -30 -60 0 -20 98 -16 145 6 41 19 93 67
83 77 -6 5 -118 23 -150 24 -11 0 -31 -20 -48 -47z"/>
<path d="M2925 1213 c-64 -6 -68 -9 -48 -39 24 -37 107 -74 165 -74 26 0 49 4
52 9 3 5 -9 31 -27 57 -34 53 -46 57 -142 47z"/>
<path d="M2141 1160 c-16 -24 -51 -96 -51 -105 0 -3 17 -5 38 -5 68 0 182 72
182 116 0 9 -22 13 -76 16 -72 3 -77 2 -93 -22z"/>
<path d="M2386 1161 c-53 -8 -70 -24 -86 -81 -17 -62 -14 -69 24 -60 54 12
118 52 143 89 42 62 33 67 -81 52z"/>
<path d="M2515 1152 c3 -7 5 -17 5 -22 0 -36 122 -120 175 -120 23 0 25 3 19
28 -4 15 -14 45 -24 68 l-17 41 -82 9 c-68 8 -81 8 -76 -4z"/>
<path d="M2690 1161 c0 -19 54 -72 91 -92 22 -10 59 -22 84 -26 54 -7 55 -1
20 75 l-24 52 -86 0 c-47 0 -85 -4 -85 -9z"/>
<path d="M3678 4233 c-90 -118 -92 -123 -75 -140 14 -14 19 -10 52 36 20 28
41 51 46 51 4 0 6 -35 2 -78 -5 -64 -3 -80 10 -91 9 -7 20 -10 25 -7 5 3 37
44 72 92 56 77 61 87 47 101 -13 13 -19 9 -57 -41 -23 -31 -45 -56 -48 -56 -3
0 -2 36 2 81 6 78 -1 109 -25 109 -4 0 -27 -26 -51 -57z"/>
<path d="M1269 4241 l-23 -18 27 -62 c15 -34 27 -67 27 -72 0 -6 -27 11 -60
36 -60 46 -60 46 -85 28 -13 -10 -25 -22 -25 -27 0 -16 131 -176 145 -176 29
0 25 23 -11 68 -59 74 -61 77 -44 67 8 -4 39 -26 68 -48 49 -37 54 -39 69 -24
15 15 14 22 -15 89 l-32 73 54 -59 c33 -37 57 -56 65 -52 7 5 11 14 9 21 -4
18 -128 175 -138 175 -4 0 -18 -8 -31 -19z"/>
<path d="M3894 4145 c-4 -9 2 -25 15 -39 l21 -23 -60 -65 c-61 -67 -72 -91
-46 -101 10 -4 38 19 78 64 l63 71 28 -22 c21 -17 31 -20 40 -11 8 8 0 23 -33
57 -25 25 -57 55 -73 66 -24 17 -28 18 -33 3z"/>
<path d="M4021 3954 c-26 -33 -26 -38 -1 -93 26 -57 25 -71 -5 -71 -33 0 -61
41 -46 68 14 27 -11 51 -34 32 -44 -37 20 -148 86 -150 27 0 69 39 69 66 0 14
-9 42 -20 64 -25 49 -25 60 -1 60 24 0 38 -18 43 -55 2 -22 8 -30 23 -30 15 0
21 8 23 31 2 24 -5 40 -31 68 -42 44 -77 47 -106 10z"/>
<path d="M926 3925 c-3 -9 23 -40 75 -87 44 -40 84 -74 88 -76 4 -1 32 25 61
59 41 48 50 63 39 70 -10 6 -26 -4 -56 -33 l-42 -41 -64 62 c-64 61 -90 73
-101 46z"/>
<path d="M4193 3818 c-4 -7 -8 -17 -8 -23 0 -5 -7 -11 -15 -11 -32 -3 -34 -5
-20 -14 22 -14 34 -12 64 11 21 17 24 24 15 35 -14 17 -25 18 -36 2z"/>
<path d="M822 3798 c-7 -7 -12 -16 -12 -21 0 -16 121 -207 131 -207 17 0 22
30 10 56 -10 22 -7 30 15 60 23 29 32 34 54 29 29 -6 61 19 44 34 -9 8 -201
61 -220 61 -6 0 -15 -5 -22 -12z m123 -68 c2 -4 -4 -15 -14 -24 -18 -16 -20
-16 -35 6 -26 36 -21 49 14 36 17 -5 32 -13 35 -18z"/>
<path d="M4213 3637 c-74 -13 -113 -25 -113 -33 0 -18 21 -29 50 -26 20 2 30
-5 47 -36 20 -36 21 -41 7 -61 -15 -21 -11 -61 5 -61 5 0 41 43 81 96 65 86
71 99 61 120 -6 13 -14 23 -18 23 -5 -1 -59 -10 -120 -22z m77 -45 c0 -5 -11
-19 -24 -31 l-24 -23 -12 22 c-10 18 -9 24 1 31 18 11 59 12 59 1z"/>
<path d="M732 3643 c-16 -6 -93 -124 -87 -133 9 -15 189 -111 200 -106 6 2 27
34 46 70 32 63 33 67 19 93 -12 22 -24 29 -54 31 -27 2 -45 11 -58 28 -19 23
-38 28 -66 17z m44 -57 c6 -15 -22 -76 -34 -76 -5 0 -16 6 -25 13 -16 11 -16
14 3 45 21 33 47 42 56 18z m91 -42 c8 -20 -22 -84 -40 -84 -16 0 -37 20 -37
36 0 18 40 64 56 64 8 0 17 -7 21 -16z"/>
<path d="M4361 3474 c-21 -15 -23 -22 -19 -78 6 -68 2 -86 -16 -86 -33 0 -59
63 -36 86 13 13 2 44 -16 44 -18 0 -34 -32 -34 -70 0 -69 61 -123 112 -99 36
16 49 50 39 102 -9 49 -5 67 15 67 21 0 39 -44 26 -66 -7 -12 -7 -25 0 -37 9
-18 11 -18 29 -1 37 33 15 119 -36 142 -33 15 -36 15 -64 -4z"/>
<path d="M607 3423 c-16 -18 -54 -99 -59 -128 -4 -22 202 -111 214 -92 15 23
8 34 -32 50 -22 8 -40 20 -40 26 0 17 41 38 87 46 30 5 44 13 48 27 10 29 0
33 -52 21 -54 -13 -63 -10 -63 17 0 23 -36 50 -66 50 -11 0 -28 -8 -37 -17z
m62 -47 c17 -21 -12 -91 -35 -82 -8 3 -20 6 -25 6 -13 0 -11 15 5 55 16 37 36
44 55 21z"/>
<path d="M4440 3260 c-16 -16 -20 -33 -20 -80 0 -51 -3 -60 -18 -60 -10 0 -23
5 -30 12 -15 15 -16 54 -2 63 13 8 13 42 -1 50 -21 14 -49 -26 -49 -71 0 -79
71 -130 126 -90 14 11 20 30 24 82 5 73 22 93 42 49 9 -21 9 -31 0 -46 -10
-15 -10 -25 -1 -41 l12 -22 18 23 c23 28 24 72 4 110 -23 46 -71 55 -105 21z"/>
<path d="M515 3208 c-2 -7 -13 -42 -24 -78 l-19 -65 26 -11 c15 -7 64 -23 110
-37 l84 -26 12 32 c21 49 40 136 33 143 -15 16 -36 -8 -47 -55 -14 -59 -19
-65 -54 -51 l-25 9 15 51 c25 85 -8 99 -36 15 -17 -52 -26 -60 -50 -45 -12 7
-13 16 -3 52 6 24 15 51 18 61 6 13 2 17 -14 17 -12 0 -24 -6 -26 -12z"/>
<path d="M4433 3040 c-54 -33 -69 -91 -38 -150 35 -67 139 -77 197 -20 23 24
28 37 28 80 0 44 -4 56 -29 81 -24 24 -38 29 -78 29 -30 0 -60 -7 -80 -20z
m131 -46 c22 -21 20 -67 -3 -88 -11 -10 -37 -20 -59 -23 -72 -10 -107 53 -57
102 29 30 94 34 119 9z"/>
<path d="M450 2980 c0 -13 9 -22 28 -26 49 -11 52 -13 52 -46 0 -50 -9 -58
-55 -48 -39 9 -54 2 -55 -26 0 -6 49 -21 111 -33 92 -19 113 -20 120 -9 15 23
4 33 -44 42 l-47 9 6 36 c10 52 11 53 66 46 48 -7 50 -6 46 16 -3 21 -12 26
-93 41 -120 23 -135 23 -135 -2z"/>
<path d="M4484 2800 c-36 -14 -64 -59 -64 -102 0 -31 7 -46 30 -70 17 -16 36
-28 43 -26 15 5 23 48 8 48 -16 0 -41 30 -41 51 0 34 36 59 83 59 67 0 99 -49
60 -92 -12 -14 -14 -23 -6 -40 l10 -22 26 26 c45 45 32 135 -24 164 -31 15
-92 18 -125 4z"/>
<path d="M520 2656 c-102 -38 -115 -45 -118 -68 -3 -23 5 -28 109 -71 61 -26
115 -44 120 -41 18 11 8 34 -21 49 -21 11 -30 23 -30 40 0 38 17 72 39 78 15
3 21 13 21 31 0 14 -1 26 -2 25 -2 0 -55 -19 -118 -43z m30 -71 c0 -28 -13
-31 -57 -14 l-28 11 25 13 c39 22 60 19 60 -10z"/>
<path d="M4430 2545 l0 -26 118 3 c109 3 117 4 117 23 0 19 -8 20 -117 23
l-118 3 0 -26z"/>
<path d="M4430 2487 c0 -16 8 -28 25 -35 21 -10 25 -18 25 -57 0 -42 -3 -47
-30 -56 -22 -8 -30 -17 -30 -35 0 -13 3 -24 8 -23 4 0 57 17 117 37 100 33
110 39 113 63 3 24 -5 30 -91 71 -130 63 -137 65 -137 35z m143 -84 c26 -8 21
-20 -14 -32 -18 -6 -34 -11 -35 -11 -2 0 -4 14 -4 31 0 26 3 30 18 24 9 -4 25
-10 35 -12z"/>
<path d="M510 2446 c-95 -10 -105 -13 -105 -31 0 -19 6 -20 75 -17 47 3 71 0
65 -5 -5 -6 -38 -31 -72 -56 -49 -37 -60 -51 -56 -68 5 -19 10 -20 92 -14 126
9 141 13 141 37 0 20 -4 20 -72 14 -83 -9 -83 -4 7 59 44 32 55 45 53 64 -2
14 -7 25 -13 26 -5 1 -57 -3 -115 -9z"/>
<path d="M4610 2255 c0 -35 -18 -39 -112 -25 -66 9 -82 9 -89 -2 -16 -25 -2
-33 89 -46 l92 -14 0 -33 c0 -32 15 -54 27 -41 6 6 32 138 32 169 1 11 -6 17
-19 17 -15 0 -20 -7 -20 -25z"/>
<path d="M555 2198 c-109 -72 -116 -78 -109 -104 5 -18 21 -24 122 -41 64 -11
120 -19 124 -17 16 9 -6 43 -33 49 -24 6 -29 12 -35 51 -6 39 -4 47 15 60 20
15 29 49 14 57 -5 2 -48 -22 -98 -55z m29 -64 c11 -28 6 -34 -27 -34 -46 0
-52 10 -20 32 34 22 39 22 47 2z"/>
<path d="M4382 2088 c3 -19 16 -25 93 -44 118 -30 137 -30 133 -3 -3 19 -17
25 -98 45 -122 30 -132 30 -128 2z"/>
<path d="M4391 2007 c-67 -34 -86 -125 -37 -176 84 -88 216 -43 216 73 0 45
-39 92 -88 106 -47 13 -62 12 -91 -3z m93 -51 c81 -34 47 -138 -38 -122 -68
13 -97 75 -56 116 24 24 48 25 94 6z"/>
<path d="M575 1977 c-76 -27 -89 -35 -87 -52 5 -27 4 -27 51 -10 42 14 42 14
52 -12 20 -54 17 -67 -23 -77 -37 -9 -52 -36 -28 -51 10 -6 197 51 213 65 4 3
5 15 1 24 -5 12 -13 16 -28 11 -11 -3 -35 -8 -52 -11 -29 -6 -32 -4 -41 35
-12 45 -13 43 40 60 26 9 37 18 37 32 0 27 -28 24 -135 -14z"/>
<path d="M693 1783 c-39 -19 -39 -22 -13 -73 14 -28 25 -38 36 -33 11 4 13 13
9 33 -9 41 13 49 42 16 32 -37 29 -69 -8 -100 -64 -54 -139 -20 -125 58 7 38
-13 67 -31 44 -23 -28 -24 -58 -4 -102 37 -84 126 -98 196 -31 53 49 48 112
-13 178 -29 31 -44 32 -89 10z"/>
<path d="M4287 1793 c-17 -16 -3 -31 48 -52 30 -13 55 -27 55 -31 0 -5 -26
-11 -57 -15 -83 -9 -108 -19 -111 -42 -2 -16 13 -27 93 -62 90 -40 125 -46
125 -21 0 5 -28 24 -62 42 l-63 32 65 9 c89 11 114 19 118 40 3 14 -18 28 -92
62 -99 47 -108 49 -119 38z"/>
<path d="M847 1352 c-34 -37 -15 -82 34 -82 15 0 37 -9 50 -20 l24 -19 -67 -1
c-60 0 -68 -2 -68 -19 0 -13 10 -20 30 -25 63 -12 74 -111 17 -151 -12 -8 -18
-17 -15 -21 4 -3 73 -5 154 -5 137 2 178 7 146 18 -17 7 -42 57 -42 86 0 32
34 75 63 79 12 2 22 10 22 18 0 12 -18 16 -85 20 -73 4 -92 9 -133 35 -27 17
-47 38 -47 48 0 20 -34 57 -53 57 -8 0 -21 -8 -30 -18z m159 -202 c1 -8 2 -21
3 -27 0 -7 7 -13 14 -13 7 0 13 -9 14 -20 1 -14 -4 -20 -17 -20 -13 0 -17 5
-14 15 8 20 -13 45 -32 38 -10 -4 -14 3 -14 22 0 22 4 26 23 23 12 -2 23 -10
23 -18z"/>
<path d="M4188 1359 c-10 -5 -18 -21 -18 -34 0 -18 -13 -33 -52 -60 -50 -33
-57 -35 -135 -35 -76 0 -83 -2 -83 -20 0 -15 7 -20 24 -20 57 0 77 -100 30
-147 -14 -14 -24 -27 -22 -28 7 -7 299 -8 306 -1 4 4 0 13 -9 19 -22 17 -39
51 -39 80 0 32 34 75 63 79 12 2 22 10 22 18 0 11 -15 16 -62 18 -35 2 -63 6
-63 9 0 13 36 32 61 33 14 0 30 5 37 12 19 19 15 66 -7 78 -24 12 -31 12 -53
-1z m-88 -219 c0 -11 8 -24 18 -28 24 -10 24 -51 0 -49 -10 1 -17 6 -14 12 6
17 -15 47 -30 41 -10 -4 -14 2 -14 19 0 18 5 25 20 25 13 0 20 -7 20 -20z"/>
<path d="M1326 919 c-56 -44 -71 -108 -35 -153 46 -58 115 -72 148 -30 29 37
26 49 -15 75 -30 18 -38 19 -45 8 -6 -10 -2 -19 12 -30 18 -13 19 -17 6 -27
-19 -16 -62 -1 -76 27 -21 39 23 111 68 111 34 0 45 -8 62 -45 8 -16 21 -30
29 -30 27 0 14 57 -20 88 -38 34 -95 37 -134 6z"/>
<path d="M3527 859 c-80 -48 -86 -77 -12 -54 17 5 27 -5 59 -60 40 -68 60 -85
77 -68 7 7 -5 35 -35 84 l-46 74 26 21 c23 19 26 44 6 44 -4 0 -38 -18 -75
-41z"/>
<path d="M1491 758 c-36 -68 -47 -96 -39 -105 17 -21 26 -15 48 27 11 22 23
40 26 40 3 0 18 -7 34 -15 34 -18 37 -35 13 -76 -16 -26 -16 -31 -3 -39 8 -5
17 -10 20 -10 3 0 28 43 55 95 42 81 48 97 35 105 -15 10 -30 -2 -55 -45 -10
-17 -13 -17 -43 -1 -35 18 -38 29 -17 66 13 24 5 50 -15 50 -5 0 -31 -42 -59
-92z"/>
<path d="M3351 764 c-35 -29 -38 -49 -15 -83 16 -22 21 -23 79 -17 51 5 64 3
68 -9 11 -27 -22 -48 -65 -41 -50 8 -64 0 -42 -25 26 -28 85 -25 123 7 35 29
39 58 15 93 -16 22 -22 23 -80 18 -67 -7 -85 2 -63 29 9 11 24 14 44 11 37 -5
55 0 55 18 0 34 -79 33 -119 -1z"/>
<path d="M1710 736 c-5 -14 -23 -58 -40 -97 -17 -40 -27 -76 -23 -80 9 -9 133
-59 145 -59 4 0 8 7 8 16 0 9 -20 24 -50 37 -49 21 -59 37 -41 65 6 10 18 9
59 -7 45 -18 51 -18 56 -4 4 9 5 16 4 17 -100 46 -99 46 -88 66 10 19 11 19
61 0 49 -20 69 -19 69 1 0 5 -24 20 -54 33 -90 40 -95 41 -106 12z"/>
<path d="M3248 724 c-4 -3 4 -37 18 -74 31 -87 31 -108 -1 -116 -40 -10 -50 0
-79 80 -29 78 -32 82 -55 67 -11 -7 -9 -22 14 -82 15 -41 35 -82 43 -91 29
-34 109 -18 138 27 15 24 15 29 -12 107 -27 76 -47 102 -66 82z"/>
<path d="M1885 678 c-41 -123 -56 -191 -43 -199 22 -15 25 -11 44 59 l19 67 5
-75 c4 -65 8 -75 25 -78 15 -2 27 11 50 54 33 62 43 54 21 -19 -13 -44 -13
-48 4 -57 19 -10 24 1 76 182 4 13 -3 21 -21 28 -14 5 -28 10 -31 10 -2 0 -22
-28 -44 -62 l-40 -63 0 73 c0 69 -1 73 -26 82 -32 13 -34 13 -39 -2z"/>
<path d="M3058 655 c-3 -3 1 -31 9 -62 8 -30 12 -58 8 -61 -3 -3 -29 18 -58
46 -48 47 -74 61 -89 47 -5 -6 38 -190 48 -207 3 -4 12 -4 20 -1 16 6 16 9 -5
95 l-9 38 27 -19 c14 -11 41 -35 59 -54 23 -23 40 -33 53 -30 24 7 24 8 -4
118 -22 83 -39 110 -59 90z"/>
<path d="M2120 600 c-11 -11 -20 -26 -20 -33 0 -23 31 -57 71 -77 40 -21 51
-46 24 -56 -25 -10 -63 5 -70 26 -8 25 -45 27 -45 2 0 -27 42 -62 83 -69 51
-8 87 17 87 60 0 42 -7 50 -57 76 -51 26 -57 51 -12 51 22 0 32 -5 36 -20 7
-26 43 -27 43 -1 0 51 -101 80 -140 41z"/>
<path d="M2829 570 c-19 -27 -37 -50 -41 -50 -3 0 -9 18 -13 40 -5 30 -11 40
-26 40 -22 0 -23 -17 -6 -135 11 -69 15 -80 32 -80 16 0 20 7 20 37 0 20 6 43
13 50 11 11 20 6 51 -29 22 -27 45 -43 59 -43 29 0 28 21 -4 51 -14 13 -35 37
-46 52 l-20 28 24 32 c41 53 41 57 15 57 -18 0 -33 -13 -58 -50z"/>
<path d="M2345 560 c-8 -16 -31 -64 -50 -105 l-34 -75 24 0 c15 0 26 7 30 20
5 16 15 20 50 20 39 0 46 -3 60 -31 11 -19 22 -29 33 -27 21 5 21 -1 -17 126
-29 93 -34 102 -56 102 -17 0 -29 -9 -40 -30z m49 -62 c9 -35 8 -38 -19 -38
-27 0 -31 10 -15 41 14 25 26 24 34 -3z"/>
<path d="M2564 455 c-10 -24 9 -37 47 -33 26 2 34 8 34 23 0 16 -8 21 -38 23
-27 2 -39 -1 -43 -13z"/>
</g>
</svg>
